<?xml version="1.0" encoding="utf-8"?>
<!DOCTYPE svg PUBLIC "-//W3C//DTD SVG 1.0//EN" "http://www.w3.org/TR/2001/REC-SVG-20010904/DTD/svg10.dtd">
<svg version="1.0" xmlns="http://www.w3.org/2000/svg" width="693px" height="642px" viewBox="0 0 693 642" preserveAspectRatio="xMidYMid meet">
 <g fill="#000000">
  <path d="M331 480.6 c0 -3.1 -0.4 -3.5 -6.7 -6.4 -25 -11.3 -54.9 -17.9 -85.3 -18.8 -9.6 -0.3 -21.3 -0.6 -26 -0.7 l-8.5 -0.3 -0.3 -6.2 -0.3 -6.2 5.5 0 c5.2 0 5.6 -0.2 7.2 -3.2 1.2 -2.3 1.9 -6.9 2.3 -14.8 l0.6 -11.5 9.5 -0.3 c15.2 -0.5 32.3 2.8 56.8 11.2 24.3 8.3 39.8 15.5 53.9 25.1 10.5 7.2 9.7 7.2 18.3 1 5.8 -4.2 20.3 -12.6 25.5 -14.7 2.2 -1 7.4 -3.1 11.5 -4.8 22.4 -9.4 51.8 -16.5 72.7 -17.7 l11.2 -0.6 0.5 3.4 c0.3 1.9 0.7 7.2 1 11.9 0.2 4.7 1 10 1.7 11.8 1.3 3.1 1.5 3.2 7.2 3.2 l5.8 0 -0.3 6 -0.3 6.1 -19 0.3 c-37.4 0.6 -76 8 -100.2 19.1 -7.1 3.3 -7.3 3.6 -7.3 7 l0 3.5 -18.5 0 -18.5 0 0 -3.4z m27 -9.5 c48.1 -18.3 56.2 -21.1 68.7 -23.5 17.5 -3.4 37.2 -5.6 43.3 -4.9 l5 0.6 0 -3.3 0 -3.2 -4.7 0.5 c-2.7 0.2 -10.4 1 -17.3 1.6 -6.9 0.7 -17.4 1.9 -23.4 2.7 -7.5 1.1 -11.1 1.3 -11.9 0.5 -2.2 -2.2 9 -4.4 31.8 -6.1 7.2 -0.5 14.6 -1.4 16.5 -2 1.9 -0.5 4.8 -1 6.3 -1 2.2 0 2.8 -0.4 2.5 -1.7 -0.2 -1 -1.4 -2 -2.8 -2.2 -3.5 -0.5 -32.3 3 -33.5 4 -1.6 1.5 -8.5 1.1 -8.5 -0.5 0 -1 1.9 -1.5 6.8 -1.9 3.7 -0.2 13.3 -1.5 21.5 -2.7 14.3 -2.3 14.7 -2.4 14.7 -4.8 l0 -2.4 -9.2 0.7 c-8.6 0.6 -24 3.9 -47.8 9.9 -14.8 3.8 -20.1 5.7 -34 12.3 -4.7 2.2 -8.9 4.2 -9.5 4.4 -2.9 1.2 -18.5 10.2 -19 10.9 -0.3 0.5 -1.9 1.1 -3.6 1.5 -2.3 0.5 -3.6 0.2 -5.2 -1.2 -1.2 -1.1 -4.7 -3.5 -7.7 -5.3 -3 -1.9 -5.9 -4 -6.3 -4.7 -0.4 -0.7 -1.4 -1.3 -2.1 -1.3 -0.7 0 -5.3 -1.8 -10.2 -4.1 -28.4 -13.1 -62.1 -21.9 -85.9 -22.3 -6.4 -0.1 -7 0.1 -7 1.9 0 1.6 0.7 2.1 3.5 2.2 10.3 0.7 30.1 3.9 34.5 5.5 4.1 1.5 4.4 1.7 1.5 1.3 -9.3 -1.5 -19.5 -2.4 -29.5 -2.7 -9.6 -0.3 -11 -0.1 -11.3 1.4 -0.2 1.2 0.5 1.8 3 2.2 8.5 1.2 32.9 4 38.3 4.3 3.3 0.3 6.4 0.9 6.9 1.4 0.6 0.5 2.6 0.9 4.5 0.9 2 0 4.3 0.5 5.1 1 2.1 1.3 0.9 1.3 -12 -0.6 -5.8 -0.8 -18.9 -1.7 -29.1 -2.1 -16.1 -0.5 -18.7 -0.4 -19.2 0.9 -0.9 2.6 3.1 3.7 20.3 5.3 24.2 2.3 38.8 5 54 10.1 7.4 2.5 15.7 5.2 18.5 6 2.7 0.8 8.5 3.2 13 5.3 7.6 3.7 13.1 6.2 16.5 7.4 3.2 1.1 6.8 0.6 14 -2.2z"/>
  <path d="M320.9 412.4 c-34.8 -6.3 -63.6 -25.5 -81.7 -54.6 -24.1 -38.7 -26.5 -83.4 -6.4 -123.3 6.8 -13.6 13.6 -23 24.6 -34.1 15.6 -15.6 33.5 -26.2 52.5 -31 9.5 -2.5 24.9 -4.5 25.6 -3.5 0.1 0.3 -0.4 2.2 -1.1 4.2 -1.3 3.1 -2.1 3.7 -6.7 4.9 -17.4 4.3 -35 12.6 -48.1 22.5 -18.9 14.2 -32.6 35.4 -38.9 60.4 -1.8 7.3 -2.2 11.4 -2.2 27.1 0 16.8 0.3 19.5 2.7 29 4.8 19.1 10.3 30.8 20.6 44.4 23.1 30.2 61.8 46.5 101.1 42.6 28.4 -2.9 49.5 -12.4 72.4 -32.5 10.3 -9.1 11.3 -10.2 18.2 -20.5 3.2 -4.7 5.4 -7.4 5 -6 -1.4 4.7 -6.4 12.5 -11.9 18.7 -3.1 3.3 -5.6 6.8 -5.6 7.6 0 1.8 -13 14.1 -22.6 21.4 -16 12 -34.6 19.9 -54.1 22.8 -12 1.8 -33.2 1.8 -43.4 -0.1z"/>
  <path d="M339.5 387.3 c-1.6 -0.2 -5.9 -1.1 -9.5 -2 -27 -7 -47.3 -23.2 -59 -47.1 -7.7 -15.7 -9.5 -30.4 -6.5 -50.6 4.1 -27.1 12.9 -43.2 35.8 -65.6 31.4 -30.6 40.9 -46.3 47.2 -78.2 1.5 -7.3 2.9 -14.4 3.1 -15.7 0.5 -2.4 0.5 -2.4 1.9 -0.4 8.2 11.6 7.6 34 -1.5 56.8 -4.1 10.4 -14.2 30.2 -25 49 -11.3 19.9 -16.2 29.8 -19.4 39.8 -8.5 26 -8.3 49.7 0.4 67.5 5 10.1 15.4 21.1 25 26.4 7.7 4.3 20.5 8.8 25.1 8.8 4.8 0 2.7 -1.2 -9.3 -5.4 -22.5 -7.9 -35.7 -23.4 -40.2 -47.5 -2 -10.4 -2 -17 -0.1 -29.1 3.2 -19.9 11.6 -39.8 26.4 -62.5 12.6 -19.3 21.5 -37.5 25.1 -51.2 4.5 -17.4 4.9 -35.6 1 -47.2 -1 -3.1 -1.7 -5.8 -1.4 -6 0.5 -0.5 0.2 -0.9 4.5 5.9 12.2 19.1 16.9 34.1 16.9 54 0 19.5 -3.9 32.9 -16.4 56.1 -10.1 18.7 -14.9 28.8 -18.2 38.4 -2.6 7.4 -2.9 9.1 -2.9 23.5 0 14.3 0.2 16.2 2.8 24 1.5 4.7 3.7 9.6 4.7 11 l2 2.5 0 -8.7 c0 -4.8 0.5 -11.1 1.1 -14 1.2 -6 7.9 -20.1 17.2 -36.6 7.2 -12.6 12.3 -24.6 13.7 -32.4 1.4 -7.2 1.2 -19.3 -0.4 -26 -1.5 -6.6 -0.9 -7.5 1.6 -2 4.2 9.1 4.9 22.6 2.3 40.7 -0.8 5.5 -1.4 11.1 -1.4 12.5 0 2.4 0 2.4 1.4 0.6 4.2 -5.6 8.9 -22.6 10.6 -38.6 l1.3 -11.5 1.3 5 c2.8 10.9 3.7 24.3 2.4 33.7 -1.6 11.3 -7.1 27.7 -14.8 44.3 -7.2 15.3 -8.6 21 -7.1 27.9 2.6 12.1 17.5 18.5 32.7 14 2.9 -0.8 5.5 -1.3 5.8 -1.1 0.5 0.6 -8.8 6 -13.2 7.7 -4.3 1.7 -12.2 3.7 -18 4.5 -4.2 0.6 -4.6 0.8 -3 1.8 1.4 0.7 4.3 0.7 10.5 -0.2 12.2 -1.7 21 -6.2 28.9 -14.6 4.1 -4.4 6.1 -6 6.1 -4.8 0 1.3 1 0.7 3.5 -2.2 1.9 -2.2 3.4 -3.6 3.5 -3.2 0.1 2.1 -7.4 11.9 -13.6 17.8 -22.7 21.6 -56.7 33.8 -84.9 30.2z"/>
  <path d="M428.2 303.3 c-3.9 -0.8 -2 -2.5 6.9 -6.4 4.6 -2.1 10 -5.1 11.9 -6.7 l3.5 -2.9 -3.7 -1.7 c-4.6 -2.2 -12.9 -10.9 -15.7 -16.4 -1.2 -2.3 -1.8 -4.2 -1.3 -4.2 0.4 0 3.3 0.9 6.4 2 3.1 1.1 7.4 2.2 9.6 2.6 l4 0.6 -0.5 -6.4 c-0.4 -4.2 0 -7.8 1 -10.8 1.5 -4.4 3.7 -6.6 3.7 -3.6 0 0.8 2.1 3.9 4.6 6.7 5.6 6.3 7.4 10.3 7.4 16.4 0 5 0.8 5.5 3.5 2.5 2.3 -2.6 6.7 -2.6 8.3 0 1 1.7 0.9 2.3 -0.8 4 -1.1 1.1 -2 2.7 -2 3.6 0 2.9 -5.2 8.3 -10.3 10.8 -2.9 1.4 -8.8 3.2 -13.2 4 -4.4 0.8 -10.6 2.6 -13.8 4 -3.2 1.4 -6.1 2.5 -6.5 2.5 -0.4 -0.1 -1.7 -0.4 -3 -0.6z"/>
  <path d="M439.1 208.4 c-11.7 -14 -33.5 -27.7 -48 -30 -5 -0.8 -5.8 -1.4 -6.7 -4.8 -0.7 -2.8 -0.6 -2.8 2.7 -2.1 19.5 4.1 39.3 16.9 51.3 32.9 3.3 4.4 7.1 10.6 6.4 10.6 -0.2 0 -2.7 -3 -5.7 -6.6z"/>
 </g>
 <g fill="#ffffff">
  <path d="M379.5 462.2 c1.3 -1.4 20.5 -9.5 27.5 -11.6 6.2 -1.9 20.4 -4.6 23.5 -4.5 1.1 0 -2.7 1.1 -8.5 2.4 -5.8 1.3 -17 4.8 -25 7.8 -19.8 7.5 -18.7 7.2 -17.5 5.9z"/>
  <path d="M370.5 449.2 c1.6 -1.3 6.7 -3.3 6.1 -2.3 -0.3 0.5 -2 1.4 -3.8 2 -1.8 0.6 -2.8 0.8 -2.3 0.3z"/>
  <path d="M277 443.9 c-7 -1.7 -16.8 -3.2 -30 -4.5 l-13.5 -1.3 12.5 0.4 c6.9 0.3 17.8 1.2 24.3 2 6.5 0.9 12.2 1.3 12.7 1 0.6 -0.3 1 -0.2 1 0.2 0 1 -2.1 3.3 -2.9 3.2 -0.4 -0.1 -2.2 -0.5 -4.1 -1z"/>
  <path d="M308 440.5 c-1.9 -0.7 -4.3 -1.4 -5.2 -1.4 -1 -0.1 -4.6 -1.4 -8 -3 -3.5 -1.6 -7.5 -3.3 -9.1 -3.6 -1.5 -0.4 -3 -1.1 -3.2 -1.6 -0.5 -0.7 1.3 -0.3 8.5 2.1 6.3 2.1 22 8.2 22 8.6 0 0.6 -1.2 0.4 -5 -1.1z"/>
  <path d="M227.3 429.3 c1.5 -0.2 3.9 -0.2 5.5 0 1.5 0.2 0.2 0.4 -2.8 0.4 -3 0 -4.3 -0.2 -2.7 -0.4z"/>
  <path d="M471.5 423.5 c0 -1.4 0.3 -2.5 0.8 -2.5 0.4 0 0.7 1.1 0.7 2.5 0 1.4 -0.3 2.5 -0.7 2.5 -0.5 0 -0.8 -1.1 -0.8 -2.5z"/>
  <path d="M233 421.9 c-1.6 -0.5 0.1 -0.6 4.5 -0.2 3.9 0.3 7.2 0.7 7.4 0.9 0.8 0.8 -9.5 0.2 -11.9 -0.7z"/>
 </g>
</svg>